<svg preserveAspectRatio="none" width="100%" height="100%" overflow="visible" style="display: block;" viewBox="0 0 17.5222 17.5222" fill="none" xmlns="http://www.w3.org/2000/svg">
<g id="coeur">
<path id="Vector" d="M8.83408 13.7629L8.76107 13.8359L8.68076 13.7629C5.21283 10.6162 2.92034 8.53545 2.92034 6.42548C2.92034 4.9653 4.01548 3.87016 5.47566 3.87016C6.6 3.87016 7.69514 4.60025 8.08209 5.59318H9.44006C9.82701 4.60025 10.9221 3.87016 12.0465 3.87016C13.5067 3.87016 14.6018 4.9653 14.6018 6.42548C14.6018 8.53545 12.3093 10.6162 8.83408 13.7629ZM12.0465 2.40998C10.7761 2.40998 9.55687 3.00135 8.76107 3.92857C7.96528 3.00135 6.74602 2.40998 5.47566 2.40998C3.22698 2.40998 1.46016 4.1695 1.46016 6.42548C1.46016 9.17793 3.94247 11.4339 7.70244 14.8434L8.76107 15.8072L9.81971 14.8434C13.5797 11.4339 16.062 9.17793 16.062 6.42548C16.062 4.1695 14.2952 2.40998 12.0465 2.40998Z" fill="var(--fill-0, black)"/>
</g>
</svg>
