<svg preserveAspectRatio="none" width="100%" height="100%" overflow="visible" style="display: block;" viewBox="0 0 44 26" fill="none" xmlns="http://www.w3.org/2000/svg">
<path id="burger" d="M0 24C0 25.1046 0.895431 26 2 26H42C43.1046 26 44 25.1046 44 24V23.6667C44 22.5621 43.1046 21.6667 42 21.6667H2C0.895431 21.6667 0 22.5621 0 23.6667V24ZM0 13.1667C0 14.2712 0.895431 15.1667 2 15.1667H42C43.1046 15.1667 44 14.2712 44 13.1667V12.8333C44 11.7288 43.1046 10.8333 42 10.8333H2C0.895431 10.8333 0 11.7288 0 12.8333V13.1667ZM2 0C0.895431 0 0 0.895431 0 2V2.33333C0 3.4379 0.895431 4.33333 2 4.33333H42C43.1046 4.33333 44 3.4379 44 2.33333V2C44 0.89543 43.1046 0 42 0H2Z" fill="var(--fill-0, white)"/>
</svg>
