<svg preserveAspectRatio="none" width="100%" height="100%" overflow="visible" style="display: block;" viewBox="0 0 19 21" fill="none" xmlns="http://www.w3.org/2000/svg">
<path id="Vector" d="M9.5 0C4.25389 0 0 4.2315 0 9.45C0 13.8285 2.99778 17.5035 7.06167 18.5745L9.5 21L11.9383 18.5745C16.0022 17.5035 19 13.8285 19 9.45C19 4.2315 14.7461 0 9.5 0ZM9.5 2.1C11.2522 2.1 12.6667 3.507 12.6667 5.25C12.6667 6.993 11.2522 8.4 9.5 8.4C7.74778 8.4 6.33333 6.993 6.33333 5.25C6.33333 3.507 7.74778 2.1 9.5 2.1ZM9.5 17.115C6.86111 17.115 4.52833 15.771 3.16667 13.734C3.19833 11.6445 7.38889 10.5 9.5 10.5C11.6006 10.5 15.8017 11.6445 15.8333 13.734C14.4717 15.771 12.1389 17.115 9.5 17.115Z" fill="var(--fill-0, white)"/>
</svg>
