<svg preserveAspectRatio="none" width="100%" height="100%" overflow="visible" style="display: block;" viewBox="0 0 20.5858 20.5858" fill="none" xmlns="http://www.w3.org/2000/svg">
<path id="Vector" d="M20.0738 20.2929C19.6832 20.6834 19.0501 20.6834 18.6596 20.2929L12.6496 14.2829C12.2893 13.9226 11.719 13.8981 11.2815 14.1593C10.8876 14.3944 10.4618 14.5941 10.0042 14.7583C9.24583 15.0306 8.43889 15.1667 7.58333 15.1667C5.46389 15.1667 3.67033 14.4328 2.20267 12.9652C0.734222 11.4967 0 9.70278 0 7.58333C0 5.46389 0.734222 3.66994 2.20267 2.2015C3.67033 0.733833 5.46389 0 7.58333 0C9.70278 0 11.4967 0.733833 12.9652 2.2015C14.4328 3.66994 15.1667 5.46389 15.1667 7.58333C15.1667 8.43889 15.0306 9.24583 14.7583 10.0042C14.5941 10.4618 14.3944 10.8876 14.1593 11.2815C13.8981 11.719 13.9226 12.2893 14.2829 12.6496L20.2929 18.6596C20.6834 19.0501 20.6834 19.6832 20.2929 20.0738L20.0738 20.2929ZM7.58333 12.8333C9.04167 12.8333 10.2814 12.3231 11.3027 11.3027C12.3231 10.2814 12.8333 9.04167 12.8333 7.58333C12.8333 6.125 12.3231 4.88522 11.3027 3.864C10.2814 2.84356 9.04167 2.33333 7.58333 2.33333C6.125 2.33333 4.88522 2.84356 3.864 3.864C2.84356 4.88522 2.33333 6.125 2.33333 7.58333C2.33333 9.04167 2.84356 10.2814 3.864 11.3027C4.88522 12.3231 6.125 12.8333 7.58333 12.8333Z" fill="var(--fill-0, white)"/>
</svg>
