<svg preserveAspectRatio="none" width="100%" height="100%" overflow="visible" style="display: block;" viewBox="0 0 9.5375 16.186" fill="none" xmlns="http://www.w3.org/2000/svg">
<path id="Vector" d="M9.11451 0.423601C8.98051 0.289321 8.82134 0.182789 8.64611 0.110102C8.47088 0.0374147 8.28304 0 8.09333 0C7.90363 0 7.71578 0.0374147 7.54055 0.110102C7.36533 0.182789 7.20615 0.289321 7.07215 0.423601L0.423601 7.07215C0.289321 7.20615 0.182789 7.36533 0.110102 7.54055C0.0374147 7.71578 0 7.90363 0 8.09333C0 8.28304 0.0374147 8.47088 0.110102 8.64611C0.182789 8.82134 0.289321 8.98051 0.423601 9.11451L7.07215 15.7631C7.20625 15.8972 7.36546 16.0035 7.54067 16.0761C7.71589 16.1487 7.90368 16.186 8.09333 16.186C8.28298 16.186 8.47078 16.1487 8.64599 16.0761C8.82121 16.0035 8.98041 15.8972 9.11451 15.7631C9.24862 15.629 9.35499 15.4698 9.42757 15.2945C9.50015 15.1193 9.5375 14.9315 9.5375 14.7419C9.5375 14.5522 9.50015 14.3644 9.42757 14.1892C9.35499 14.014 9.24862 13.8548 9.11451 13.7207L3.49439 8.08609L9.11451 2.46597C9.67942 1.90106 9.66494 0.974026 9.11451 0.423601Z" fill="var(--fill-0, #EEF7FF)"/>
</svg>
